<svg width="266" height="406" viewBox="0 0 266 406" fill="none" xmlns="http://www.w3.org/2000/svg">
<path opacity="0.2" d="M-4.11882 128.442L-40.5507 79.9427L-38.5642 78.4533L-1.54612 127.75L-4.96839 159.219L41.2028 220.691L37.1811 249.038C39.071 249.526 40.7083 250.708 41.7677 252.348C42.8272 253.988 43.2314 255.966 42.8999 257.89C42.5685 259.814 41.5258 261.543 39.9788 262.733C38.4318 263.923 36.4938 264.488 34.5495 264.315C32.6053 264.142 30.7971 263.244 29.4841 261.799C28.1711 260.354 27.4493 258.468 27.462 256.516C27.4747 254.563 28.221 252.687 29.5528 251.26C30.8846 249.833 32.7043 248.959 34.6506 248.812L38.5535 221.302L-7.58846 159.857L-4.11882 128.442ZM32.163 252.335C31.196 253.063 30.5113 254.105 30.2258 255.281C29.9402 256.458 30.0713 257.697 30.5969 258.788C31.1224 259.879 32.0098 260.754 33.1079 261.263C34.2059 261.773 35.4466 261.887 36.6186 261.584C37.7906 261.281 38.8214 260.581 39.5352 259.604C40.2491 258.626 40.6018 257.431 40.5333 256.222C40.4649 255.013 39.9795 253.865 39.1598 252.974C38.3402 252.083 37.2371 251.503 36.0384 251.335C34.665 251.142 33.2716 251.502 32.163 252.335ZM-29.0157 169.529L17.1555 231.001L13.0486 259.919L49.9047 308.975C51.1228 308.485 52.4471 308.321 53.7479 308.498C54.7594 308.633 55.7338 308.968 56.6139 309.484C57.494 310.001 58.262 310.688 58.8727 311.506C60.0868 313.148 60.6066 315.202 60.3199 317.224C60.0332 319.246 58.9631 321.073 57.3405 322.313C55.7343 323.578 53.6911 324.154 51.6603 323.913C49.6295 323.672 47.7775 322.634 46.5116 321.027C45.2458 319.42 44.6698 317.376 44.9104 315.345C45.151 313.314 46.1885 311.461 47.7947 310.195L10.4998 260.536L14.6067 231.617L-31.5372 170.184L-28.1056 138.661L-64.5357 90.1505L-62.5602 88.6593L-25.5842 138.006L-29.0157 169.529ZM48.4702 319.336C48.8801 319.889 49.3968 320.355 49.9899 320.705C50.5829 321.055 51.2401 321.282 51.9226 321.373C52.9481 321.521 53.9942 321.36 54.9284 320.912C55.8625 320.464 56.6426 319.749 57.1698 318.857C57.6969 317.965 57.9473 316.936 57.8894 315.902C57.8314 314.867 57.4676 313.873 56.8441 313.045C56.431 312.495 55.9138 312.033 55.3219 311.683C54.7301 311.334 54.0752 311.104 53.3947 311.008C52.7142 310.912 52.0215 310.95 51.356 311.122C50.6905 311.293 50.0654 311.595 49.5164 312.008C48.9653 312.419 48.501 312.935 48.15 313.527C47.799 314.118 47.5683 314.773 47.4711 315.454C47.3739 316.135 47.4121 316.828 47.5836 317.494C47.755 318.161 48.0563 318.786 48.4702 319.336ZM62.8999 228.565L17.8284 168.586C18.4728 167.731 18.7869 166.672 18.713 165.604C18.6391 164.536 18.1821 163.53 17.4261 162.772C16.6701 162.013 15.6659 161.554 14.5981 161.477C13.5304 161.4 12.4709 161.712 11.6146 162.354C10.7582 162.996 10.1625 163.926 9.93701 164.973C9.71153 166.02 9.87145 167.113 10.3873 168.051C10.9032 168.989 11.7404 169.71 12.7449 170.08C13.7494 170.45 14.8537 170.445 15.8548 170.066L61.2138 230.477L84.2515 243.22C84.0938 244.238 84.2942 245.279 84.8186 246.165C85.343 247.051 86.1588 247.728 87.1266 248.079C88.0944 248.431 89.1541 248.435 90.1247 248.092C91.0952 247.748 91.9164 247.079 92.4478 246.197C92.9792 245.315 93.1878 244.275 93.0381 243.257C92.8884 242.238 92.3896 241.302 91.627 240.61C90.8644 239.918 89.8853 239.513 88.8569 239.463C87.8286 239.413 86.8149 239.722 85.989 240.336C85.7382 240.518 85.5097 240.729 85.3083 240.965L62.8999 228.565ZM210.578 252.862C209.066 252.641 207.653 251.979 206.515 250.958C205.377 249.938 204.565 248.605 204.179 247.126L175.942 249.493L123.111 179.164L97.1426 181.836L-38.2632 2.49872L-36.2858 0.99651L98.2258 179.225L124.25 176.551L177.1 246.905L203.971 244.691C204.001 244.515 204.028 244.351 204.058 244.176C204.394 242.192 205.49 240.418 207.114 239.231C208.738 238.044 210.761 237.538 212.753 237.821C214.744 238.104 216.547 239.152 217.777 240.744C219.007 242.336 219.568 244.345 219.34 246.344C219.038 248.364 217.954 250.185 216.322 251.412C214.69 252.639 212.64 253.175 210.616 252.903L210.578 252.862ZM215.849 242.069C215.229 241.227 214.373 240.589 213.389 240.238C212.405 239.886 211.339 239.836 210.327 240.095C209.315 240.353 208.403 240.909 207.709 241.689C207.014 242.47 206.569 243.44 206.43 244.476C206.29 245.825 206.678 247.176 207.514 248.245C208.349 249.315 209.566 250.018 210.909 250.209C212.251 250.4 213.616 250.063 214.715 249.268C215.815 248.474 216.563 247.284 216.804 245.949C217.008 244.58 216.664 243.187 215.849 242.069ZM159.85 200.096C160.361 199.813 160.811 199.431 161.174 198.974C161.538 198.516 161.808 197.992 161.969 197.43C162.13 196.868 162.178 196.28 162.112 195.699C162.045 195.118 161.865 194.556 161.582 194.045C161.298 193.534 160.917 193.084 160.459 192.72C160.002 192.356 159.477 192.086 158.915 191.925C158.354 191.764 157.766 191.716 157.185 191.782C156.605 191.848 156.043 192.028 155.532 192.312L128.857 156.811L100.828 158.48L72.9687 121.325C73.6094 120.468 73.9192 119.408 73.8413 118.34C73.7633 117.273 73.3028 116.269 72.5444 115.514C71.7859 114.759 70.7805 114.302 69.7129 114.229C68.6452 114.156 67.5871 114.471 66.733 115.115C65.8789 115.76 65.2862 116.692 65.0638 117.739C64.8414 118.786 65.0042 119.878 65.5224 120.815C66.0406 121.751 66.8793 122.469 67.8843 122.837C68.8894 123.205 69.9933 123.197 70.9931 122.816L99.7067 161.051L127.727 159.369L153.6 193.81C152.846 194.656 152.443 195.758 152.474 196.891C152.505 198.025 152.968 199.103 153.767 199.906C154.567 200.71 155.644 201.177 156.776 201.213C157.909 201.248 159.012 200.85 159.861 200.098L159.85 200.096ZM39.295 361.854C37.579 362.79 35.5734 363.045 33.6776 362.569C31.7817 362.092 30.1348 360.919 29.0647 359.282C27.9946 357.646 27.5798 355.666 27.903 353.738C28.2261 351.81 29.2635 350.074 30.8086 348.877C32.3536 347.679 34.2929 347.108 36.2404 347.277C38.1878 347.445 40.0005 348.341 41.3174 349.787C42.6343 351.232 43.3589 353.12 43.3469 355.075C43.3348 357.03 42.5869 358.909 41.2523 360.337L56.4594 380.556L52.9312 393.042L132.445 498.761L130.458 500.25L50.2091 393.551L53.7374 381.065L39.295 361.854ZM39.8447 351.929C39.3273 351.243 38.6486 350.694 37.8688 350.331C37.089 349.969 36.232 349.805 35.3736 349.853C34.5152 349.901 33.6818 350.16 32.9473 350.606C32.2128 351.053 31.5997 351.674 31.1623 352.414C30.7248 353.155 30.4765 353.991 30.4393 354.851C30.4021 355.71 30.5772 356.565 30.949 357.34C31.3208 358.116 31.878 358.788 32.5711 359.297C33.2643 359.805 34.0721 360.136 34.9231 360.258C36.2958 360.452 37.6892 360.093 38.7973 359.26C39.9054 358.427 40.6376 357.188 40.8331 355.815C40.9241 355.127 40.8767 354.428 40.6938 353.758C40.5109 353.089 40.1961 352.463 39.768 351.916L39.8447 351.929ZM140.933 301.827C140.314 300.986 139.457 300.348 138.474 299.996C137.49 299.645 136.424 299.595 135.411 299.853C134.399 300.112 133.488 300.667 132.793 301.448C132.099 302.228 131.653 303.199 131.514 304.234C131.319 305.609 131.678 307.005 132.512 308.115C132.925 308.664 133.442 309.127 134.034 309.477C134.626 309.827 135.281 310.057 135.961 310.153C136.642 310.25 137.334 310.211 138 310.04C138.666 309.869 139.291 309.568 139.84 309.155C140.95 308.321 141.683 307.081 141.878 305.706C141.983 305.029 141.953 304.338 141.791 303.673C141.629 303.007 141.337 302.38 140.933 301.827ZM138.717 264.92L139.588 245.156L130.384 232.951L109.925 226.616L97.715 210.397C95.9618 211.26 93.9476 211.432 92.0734 210.877C90.1992 210.322 88.6026 209.082 87.6013 207.402C86.5999 205.723 86.2674 203.729 86.67 201.816C87.0725 199.903 88.1804 198.212 89.7733 197.079C91.3662 195.947 93.3272 195.456 95.2658 195.705C97.2044 195.953 98.9785 196.923 100.235 198.421C101.491 199.918 102.138 201.834 102.046 203.787C101.954 205.74 101.13 207.586 99.7379 208.959L111.416 224.457L131.915 230.753L142.119 244.311L141.243 264.108L255.218 415.716L253.232 417.206L138.717 264.92ZM98.5134 200.334C98.1012 199.782 97.5841 199.317 96.992 198.966C96.3998 198.614 95.7441 198.383 95.0625 198.286C94.3809 198.188 93.6867 198.226 93.0199 198.397C92.353 198.569 91.7266 198.87 91.1765 199.284C90.0662 200.12 89.3334 201.363 89.1389 202.739C88.9444 204.116 89.3043 205.513 90.1394 206.625C90.9751 207.734 92.2167 208.467 93.5918 208.662C94.6928 208.815 95.8135 208.609 96.7888 208.077L98.0691 207.166C98.9419 206.275 99.4669 205.101 99.5491 203.856C99.6312 202.611 99.265 201.378 98.5169 200.38L98.5134 200.334ZM179.691 454.683L145.531 409.272L149.07 396.788L134.256 377.109C134.903 376.256 135.219 375.198 135.148 374.13C135.077 373.062 134.623 372.055 133.869 371.295C133.116 370.535 132.113 370.073 131.046 369.993C129.979 369.913 128.919 370.221 128.061 370.86C127.202 371.499 126.604 372.427 126.375 373.473C126.146 374.518 126.302 375.611 126.814 376.551C127.326 377.491 128.16 378.215 129.163 378.589C130.166 378.963 131.27 378.962 132.272 378.587L146.348 397.297L142.809 409.781L177.704 456.172L179.691 454.683ZM117.522 423.498L155.408 473.855L166.685 475.459L181.654 495.356L178.698 505.854L239.931 587.205L241.906 585.713L181.427 505.301L184.383 494.803L168.001 473.135L156.723 471.542L118.847 421.187L106.556 419.457L82.7288 387.773C83.3416 386.896 83.6173 385.827 83.5053 384.762C83.3933 383.698 82.901 382.71 82.119 381.979C81.337 381.248 80.3177 380.824 79.2484 380.785C78.1792 380.746 77.1318 381.094 76.2987 381.766C75.4656 382.437 74.9027 383.386 74.7135 384.44C74.5242 385.493 74.7214 386.58 75.2687 387.499C75.816 388.419 76.6767 389.11 77.6926 389.446C78.7085 389.782 79.8115 389.74 80.7988 389.328L105.186 421.761L117.522 423.498ZM-87.7978 198.865L-84.8966 188.358L-146.119 107.009L-148.105 108.499L-87.617 188.923L-90.5182 199.43L-74.1985 221.134L-62.9202 222.726L-25.0444 273.081L-12.7437 274.824L11.072 306.506C10.4848 307.398 10.238 308.471 10.3768 309.53C10.5155 310.588 11.0306 311.561 11.8278 312.272C12.625 312.982 13.651 313.381 14.7182 313.396C15.7855 313.412 16.8225 313.043 17.6398 312.356C18.4571 311.67 19 310.712 19.1692 309.658C19.3383 308.604 19.1225 307.524 18.5611 306.616C17.9998 305.708 17.1304 305.032 16.112 304.712C15.0936 304.392 13.9943 304.45 13.015 304.874L-11.3725 272.442L-23.6622 270.701L-61.5381 220.346L-72.8254 218.741L-87.7978 198.865ZM-11.6515 354.136L-12.528 373.933L-3.32388 386.139L17.1551 392.421L29.3524 408.649C30.738 407.96 32.3013 407.714 33.8317 407.942C35.5727 408.18 37.1819 409.001 38.397 410.271C39.612 411.541 40.3612 413.185 40.5226 414.935C40.6839 416.685 40.2477 418.439 39.2852 419.909C38.3227 421.379 36.8907 422.48 35.2224 423.032C33.5542 423.584 31.7481 423.554 30.0987 422.948C28.4493 422.341 27.0537 421.194 26.1395 419.693C25.2253 418.191 24.8464 416.425 25.0645 414.681C25.2826 412.937 26.0849 411.318 27.3405 410.089L15.651 394.589L-4.848 388.292L-15.0426 374.747L-14.1662 354.95L-128.151 203.397L-126.175 201.905L-11.6515 354.136ZM28.5632 418.724C29.1818 419.565 30.0372 420.202 31.0198 420.554C32.0025 420.906 33.0677 420.957 34.0791 420.699C35.0905 420.442 36.002 419.889 36.6971 419.11C37.3921 418.331 37.8389 417.363 37.9804 416.329C38.1733 414.952 37.814 413.554 36.9809 412.441C36.5702 411.888 36.0532 411.423 35.4603 411.073C34.8675 410.724 34.2107 410.496 33.5286 410.403C32.4241 410.241 31.2971 410.447 30.3206 410.987L29.0403 411.898C28.1602 412.787 27.6302 413.964 27.5476 415.212C27.465 416.461 27.8353 417.697 28.5907 418.695L28.5632 418.724ZM102.822 284.483C102.17 289.096 100.165 293.412 97.0612 296.885C93.9571 300.358 89.893 302.832 85.3827 303.994C80.8724 305.156 76.1187 304.954 71.7226 303.413C67.3266 301.873 63.4857 299.063 60.6857 295.339C57.8858 291.616 56.2525 287.145 55.9925 282.493C55.7325 277.841 56.8573 273.217 59.2249 269.206C61.5925 265.194 65.0963 261.975 69.2934 259.955C73.4904 257.936 78.1922 257.207 82.8039 257.861C88.983 258.746 94.5599 262.045 98.3122 267.035C102.064 272.025 103.686 278.3 102.822 284.483ZM82.4626 260.282C78.3274 259.689 74.1096 260.337 70.3432 262.143C66.5769 263.95 63.4314 266.834 61.3051 270.43C59.1788 274.026 58.1673 278.173 58.3988 282.345C58.6303 286.517 60.0944 290.527 62.6056 293.866C65.1167 297.206 68.562 299.725 72.5052 301.105C76.4484 302.485 80.712 302.664 84.7563 301.618C88.8005 300.573 92.4433 298.35 95.2234 295.232C98.0036 292.114 99.796 288.241 100.374 284.103C101.146 278.57 99.6944 272.957 96.3372 268.492C92.98 264.027 87.9908 261.075 82.4626 260.282ZM77.1236 298.029C73.7852 297.557 70.6617 296.105 68.1485 293.857C65.6352 291.608 63.845 288.665 63.0046 285.398C62.1642 282.132 62.3113 278.69 63.4273 275.508C64.5432 272.326 66.5779 269.547 69.2738 267.522C71.9697 265.498 75.2056 264.319 78.572 264.134C81.9384 263.95 85.284 264.769 88.1854 266.487C91.0867 268.206 93.4134 270.746 94.871 273.788C96.3286 276.829 96.8516 280.234 96.3737 283.572C95.7335 288.045 93.3477 292.08 89.7387 294.796C86.1297 297.512 81.5915 298.686 77.118 298.062L77.1236 298.029ZM81.5426 266.73C78.6907 266.326 75.7834 266.778 73.1884 268.027C70.5934 269.277 68.4272 271.268 66.9638 273.749C65.5003 276.23 64.8054 279.089 64.9668 281.966C65.1282 284.843 66.1387 287.607 67.8705 289.909C69.6024 292.211 71.9778 293.949 74.6963 294.901C77.4149 295.853 80.3545 295.977 83.1434 295.258C85.9323 294.539 88.4453 293.009 90.3645 290.861C92.2837 288.714 93.523 286.045 93.9257 283.192C94.4501 279.372 93.4413 275.5 91.1198 272.421C88.7984 269.342 85.3531 267.308 81.537 266.763L81.5426 266.73ZM87.445 282.276C87.667 280.706 87.4186 279.106 86.7312 277.678C86.0437 276.25 84.9482 275.057 83.5832 274.252C82.2181 273.446 80.645 273.064 79.0629 273.153C77.4807 273.243 75.9607 273.799 74.6952 274.753C73.4296 275.707 72.4755 277.015 71.9535 278.511C71.4314 280.008 71.365 281.626 71.7626 283.16C72.1602 284.695 73.0039 286.077 74.187 287.131C75.3701 288.186 76.8394 288.866 78.4089 289.086C80.504 289.378 82.6295 288.83 84.3215 287.56C86.0134 286.29 87.1343 284.402 87.4394 282.309L87.445 282.276ZM104.261 317.518L95.3592 316.259L94.1051 325.152L103.007 326.41L104.261 317.518ZM102.161 332.352L93.2702 331.096L92.0033 339.998L100.905 341.256L102.161 332.352ZM100.072 347.188L91.1703 345.93L89.9143 354.834L98.8048 356.09L100.072 347.188ZM97.9644 362.067L89.0739 360.811L87.8088 369.701L96.7103 370.96L97.9644 362.067ZM78.1423 322.947L87.0419 324.216L88.2978 315.313L79.3964 314.054L78.1423 322.947ZM86.1979 330.147L77.3074 328.891L76.0533 337.784L84.9438 339.04L86.1979 330.147Z" fill="white"/>
</svg>
